<svg xmlns="http://www.w3.org/2000/svg" width="121" height="126" fill="none" viewBox="0 0 121 126">
  <path fill="#231F20" d="M100.678 13h-6.704V6.75c0-1.658-.707-3.247-1.964-4.42C90.753 1.159 89.048.5 87.27.5c-1.779 0-3.484.658-4.741 1.83-1.257 1.173-1.964 2.762-1.964 4.42V13H40.34V6.75c0-1.658-.706-3.247-1.964-4.42C37.118 1.159 35.413.5 33.635.5s-3.484.658-4.74 1.83c-1.258 1.173-1.965 2.762-1.965 4.42V13h-6.704c-5.334 0-10.45 1.975-14.222 5.492C2.232 22.008.113 26.777.113 31.75v75c0 4.973 2.12 9.742 5.891 13.258 3.772 3.517 8.888 5.492 14.222 5.492h80.452c5.334 0 10.45-1.975 14.222-5.492 3.772-3.516 5.891-8.285 5.891-13.258v-75c0-4.973-2.119-9.742-5.891-13.258-3.772-3.517-8.888-5.492-14.222-5.492ZM20.226 25.5h6.704v6.25c0 1.658.707 3.247 1.964 4.42 1.257 1.172 2.963 1.83 4.74 1.83 1.779 0 3.484-.658 4.741-1.83 1.258-1.173 1.964-2.762 1.964-4.42V25.5h40.226v6.25c0 1.658.707 3.247 1.964 4.42 1.257 1.172 2.962 1.83 4.74 1.83 1.779 0 3.484-.658 4.741-1.83 1.257-1.173 1.964-2.762 1.964-4.42V25.5h6.704c1.778 0 3.484.659 4.741 1.83 1.257 1.173 1.964 2.762 1.964 4.42v25H13.522v-25c0-1.658.706-3.247 1.963-4.42 1.258-1.171 2.963-1.83 4.741-1.83Zm80.452 87.5H20.226c-1.778 0-3.483-.658-4.74-1.831-1.258-1.172-1.964-2.761-1.964-4.419v-37.5h93.861v37.5c0 1.658-.707 3.247-1.964 4.419-1.257 1.173-2.963 1.831-4.741 1.831Z"/>
  <path fill="#231F20" d="M33.635 94.25c3.703 0 6.704-2.798 6.704-6.25s-3.002-6.25-6.704-6.25c-3.703 0-6.704 2.798-6.704 6.25s3.001 6.25 6.704 6.25Zm53.635-12.5H60.451c-1.778 0-3.483.659-4.74 1.83-1.258 1.173-1.964 2.762-1.964 4.42s.706 3.247 1.963 4.42c1.258 1.171 2.963 1.83 4.741 1.83H87.27c1.779 0 3.484-.659 4.741-1.83 1.257-1.173 1.964-2.762 1.964-4.42s-.707-3.247-1.964-4.42c-1.257-1.171-2.962-1.83-4.74-1.83Z"/>
</svg>
