<svg xmlns="http://www.w3.org/2000/svg" width="566" height="500" fill="none" viewBox="0 0 566 500">
  <path fill="#245A77" d="M491.671 436.418c-10.062 6.768-26.52-32.458-27.65-43.41-1.13-10.951 7.213-4.64 7.213-4.64s-7.898-35.428-2.933-46.223c4.965-10.795 9.377 1.515 9.377 1.515s3.751-36.546 19.884-39.84c16.132-3.293 2.897 37.159 2.897 37.159s6.588-10.122 13.079-7.417c6.492 2.705-12.574 48.591-12.574 48.591s7.345-8.115 13.476-5.578c6.131 2.536-7.213 49.396-22.769 59.843Z"/>
  <path fill="#73BCE4" d="M489.675 433.809a.603.603 0 0 1-.589-.505c-.12-.697-11.673-70.217 6.588-122.114a.593.593 0 0 1 .299-.381.596.596 0 0 1 .483-.037.595.595 0 0 1 .401.573.591.591 0 0 1-.053.241c-18.152 51.597-6.66 120.817-6.54 121.514a.605.605 0 0 1-.272.614.6.6 0 0 1-.22.083h-.097v.012Z"/>
  <path fill="#73BCE4" d="M485.949 379.184a.604.604 0 0 1-.349-.121c-11.42-8.331-12.971-28.96-13.043-29.837a.594.594 0 0 1 .332-.581.594.594 0 0 1 .808.27.62.62 0 0 1 .062.227c0 .204 1.551 20.544 12.226 28.707 1.947-1.202 12.406-8.92 19.39-32.109a.634.634 0 0 1 .3-.374.618.618 0 0 1 .476-.053.64.64 0 0 1 .217.112.642.642 0 0 1 .231.42.623.623 0 0 1-.021.243c-7.862 26.075-19.788 32.747-20.293 33.023a.597.597 0 0 1-.336.073Zm1.418 35.571h-.18c-6.936-2.14-12.214-15.52-12.43-16.085a.604.604 0 0 1 .034-.438.604.604 0 0 1 .763-.295.602.602 0 0 1 .321.301c0 .132 5.133 13.031 11.396 15.279 1.31-.962 8.127-6.504 13.368-21.41a.602.602 0 0 1 1.13.396c-6.011 16.927-13.765 21.976-14.089 22.192a.614.614 0 0 1-.313.06Zm.89-68.33a.626.626 0 0 1-.433-.205c-3.306-3.822-4.051-15.892-4.087-16.397a.596.596 0 0 1 .15-.436.61.61 0 0 1 .415-.201.596.596 0 0 1 .577.338.598.598 0 0 1 .06.227c0 .12.685 11.096 3.39 15.159 1.623-1.731 6.961-7.79 8.86-14.931a.616.616 0 0 1 .757-.445.632.632 0 0 1 .38.287.618.618 0 0 1 .065.471c-2.32 8.752-9.353 15.628-9.617 15.976a.594.594 0 0 1-.517.157Z"/>
  <path fill="#73BCE4" d="M503.729 437.789c-11.541 2.067-10.82-39.034-7.586-49.181 3.234-10.146 8.151-1.31 8.151-1.31s6.804-34.418 15.387-42.075c8.584-7.658 7.706 4.989 7.706 4.989s17.539-30.86 33.095-27.494c15.556 3.366-11.901 33.997-11.901 33.997s9.762-6.395 14.426-1.466c4.664 4.928-30.054 38.096-30.054 38.096s9.713-4.292 14.125.324c4.412 4.617-25.545 40.922-43.349 44.12Z"/>
  <path fill="#245A77" d="M503.212 434.771h-.145a.582.582 0 0 1-.211-.102.601.601 0 0 1-.221-.631c.168-.661 17.01-66.66 53.363-105.465a.606.606 0 0 1 .668-.188.607.607 0 0 1 .4.566.612.612 0 0 1-.19.439c-36.149 38.577-52.895 104.275-53.075 104.936a.61.61 0 0 1-.218.324.606.606 0 0 1-.371.121Z"/>
  <path fill="#245A77" d="M521.172 384.99a.605.605 0 0 1-.517-.301c-6.864-11.817-.204-30.679.072-31.484a.593.593 0 0 1 .308-.352.6.6 0 0 1 .864.526.593.593 0 0 1-.042.235c-.072.192-6.624 18.753-.361 30.126 2.248-.361 14.426-3.102 29.634-20.846a.598.598 0 0 1 .847-.066.604.604 0 0 1 .066.848c-17.167 20.015-30.27 21.314-30.823 21.314h-.048Zm-12.599 32.025a.598.598 0 0 1-.396-.144c-5.314-4.604-4.809-18.489-4.749-19.078a.594.594 0 0 1 .391-.544.583.583 0 0 1 .234-.033.591.591 0 0 1 .541.393.61.61 0 0 1 .036.232c0 .132-.529 13.488 4.112 17.924 1.562-.349 9.725-2.609 20.136-13.729a.6.6 0 0 1 .876-.061.59.59 0 0 1 .192.439.6.6 0 0 1-.191.44c-11.865 12.659-20.737 14.089-21.11 14.149h-.084l.012.012Zm27.385-60.107a.607.607 0 0 1-.577-.421c-1.43-4.677 2.597-15.628 2.765-16.109a.61.61 0 0 1 .543-.392.61.61 0 0 1 .625.58.598.598 0 0 1-.038.233c0 .108-3.69 10.05-2.897 14.69 2.14-.902 9.184-4.196 13.608-9.749a.596.596 0 0 1 .654-.249.591.591 0 0 1 .379.301.616.616 0 0 1 .068.237.617.617 0 0 1-.163.456c-5.458 6.84-14.426 10.242-14.762 10.386a.624.624 0 0 1-.205.037Z"/>
  <path fill="#73BCE4" d="M486.213 443.258a4.148 4.148 0 0 1-3.125.373c-17.516-4.52-44.721-42.941-39.984-47.221 4.736-4.279 13.644.505 14.089.722-.673-.746-32.097-35.704-27.084-40.212 5.013-4.508 13.836 2.2 14.293 2.536-.432-.565-15.856-20.773-14.426-30.162a3.836 3.836 0 0 1 6.853-1.575c32.494 42.172 46.018 99.154 49.384 115.539Z"/>
  <path fill="#245A77" d="M468.986 389.534h-.144c-3.258-.841-14.907-5.001-28.395-23.394a.6.6 0 0 1 .132-.841.61.61 0 0 1 .449-.109.605.605 0 0 1 .393.241c13.224 18.032 24.572 22.132 27.722 22.937a.6.6 0 0 1 .211 1.004.596.596 0 0 1-.368.162Zm10.856 33.035h-.132c-.361-.084-9.101-2.176-19.992-15.688a.603.603 0 0 1-.061-.667.603.603 0 0 1 .818-.241.595.595 0 0 1 .18.151c10.627 13.223 19.235 15.255 19.319 15.267a.599.599 0 0 1 .432.645.602.602 0 0 1-.564.533Zm-24.392-62.824a.589.589 0 0 1-.288-.072c-3.054-1.683-8.716-5.302-12.347-10.615a.602.602 0 0 1 .998-.674c3.499 5.109 8.98 8.62 11.938 10.243a.61.61 0 0 1 .25.29.606.606 0 0 1-.189.702.609.609 0 0 1-.362.126Z"/>
  <path fill="#F8632B" d="M510.941 499.195h-41.834a12.886 12.886 0 0 1-12.888-12.431l-1.803-50.598a4.43 4.43 0 0 1 1.239-3.234 4.442 4.442 0 0 1 3.185-1.359h62.344a4.442 4.442 0 0 1 4.133 2.85 4.43 4.43 0 0 1 .291 1.743l-1.803 50.598a12.892 12.892 0 0 1-12.864 12.431Z"/>
  <path fill="#F2AF4D" d="M521.196 431.573h-12.214c-.938 4.088-.661 9.978 7.333 12.779 2.879 1.053 6 1.257 8.992.589l.313-8.775a4.43 4.43 0 0 0-1.239-3.234 4.442 4.442 0 0 0-3.185-1.359Zm-27.109 16.386c-1.635-5.759 1.443-12.346 3.895-16.374h-13.416c-7.718 12.936-3.053 36.45 17.936 31.413 10.399-2.501 17.48-1.203 22.144 1.046l.361-10.171c-12.106-7.573-28.6 2.344-30.92-5.914Zm27.806 45.141c-10.218-22.445-28.527-.433-40.573-23.959-8.234-16.097-19.234-16.121-26.207-14.029l.397 11.059c21.519-8.415 20.581 26.76 38.89 24.043 9.785-1.478 15.339 3.727 18.381 8.872a12.864 12.864 0 0 0 9.112-5.986Zm-56.657-14.943c-5.554 1.382-.301 13.825 4.508 10.519 4.808-3.306-.301-11.565-4.508-10.519Zm46.343-8.511c-3.811 2.272 2.861 10.326 5.698 6.792 2.837-3.535-2.837-8.499-5.698-6.792Z"/>
  <path fill="#245A77" d="M61.576 446.636c8.415 5.663 22.204-27.168 23.178-36.341.974-9.172-6.011-3.883-6.011-3.883s6.612-29.669 2.404-38.697c-4.207-9.028-7.85 1.262-7.85 1.262s-3.137-30.595-16.65-33.348c-13.512-2.752-2.404 31.112-2.404 31.112s-5.518-8.415-10.952-6.215c-5.433 2.2 10.531 40.681 10.531 40.681s-6.215-6.792-11.312-4.664c-5.097 2.127 6.059 41.342 19.066 50.093Z"/>
  <path fill="#73BCE4" d="M63.247 444.545h-.096a.604.604 0 0 1-.493-.698c.096-.577 9.726-58.509-5.47-101.69a.602.602 0 0 1 1.13-.397c15.304 43.482 5.626 101.703 5.518 102.292a.599.599 0 0 1-.589.493Z"/>
  <path fill="#73BCE4" d="M66.373 398.803a.61.61 0 0 1-.289-.073c-.42-.228-10.446-5.83-17.034-27.649a.626.626 0 0 1 1.202-.349c5.794 19.235 14.426 25.654 16.145 26.796 8.86-6.84 10.134-23.754 10.146-23.923a.599.599 0 0 1 .41-.529.615.615 0 0 1 .46.032.604.604 0 0 1 .332.582c0 .733-1.358 18.032-10.951 25.053a.609.609 0 0 1-.421.06Zm-1.19 29.789a.617.617 0 0 1-.349-.084c-.276-.168-6.828-4.424-11.841-18.622a.598.598 0 0 1 .349-.814.6.6 0 0 1 .781.418c4.34 12.31 9.942 16.974 11.12 17.852 5.181-1.924 9.389-12.611 9.437-12.719a.6.6 0 0 1 1.118.433c-.18.481-4.617 11.721-10.471 13.524l-.144.012Zm-.746-57.211a.6.6 0 0 1-.42-.168c-.253-.24-6.167-6.011-8.115-13.416a.622.622 0 0 1 1.202-.312c1.551 5.842 5.855 10.819 7.31 12.37 2.2-3.45 2.752-12.443 2.752-12.539a.59.59 0 0 1 .638-.565.6.6 0 0 1 .564.637c0 .433-.649 10.555-3.438 13.789a.616.616 0 0 1-.433.204h-.06Z"/>
  <path fill="#73BCE4" d="M51.49 447.778c9.617 1.732 9.064-32.674 6.36-41.173-2.705-8.5-6.817-1.106-6.817-1.106s-5.698-28.852-12.887-35.199c-7.189-6.348-6.443 4.171-6.443 4.171s-14.69-25.834-27.71-23.021c-13.02 2.813 9.966 28.467 9.966 28.467s-8.175-5.35-12.106-1.202c-3.93 4.147 25.15 31.893 25.15 31.893s-8.14-3.607-11.83.276c-3.69 3.883 21.398 34.214 36.317 36.894Z"/>
  <path fill="#245A77" d="M51.923 445.35a.597.597 0 0 1-.577-.457c-.144-.553-14.173-55.539-44.408-87.757a.594.594 0 0 1-.19-.44.602.602 0 0 1 1.068-.377c30.463 32.458 44.564 87.757 44.696 88.346a.597.597 0 0 1-.22.631.582.582 0 0 1-.213.102h-.156v-.048Z"/>
  <path fill="#245A77" d="M36.884 403.671c-.469 0-11.517-1.094-25.87-17.876a.6.6 0 1 1 .913-.781c12.539 14.678 22.649 17.071 24.68 17.407 5.17-9.485-.288-24.921-.348-25.077a.6.6 0 1 1 1.13-.409c.24.674 5.83 16.506 0 26.448a.596.596 0 0 1-.505.288Zm10.543 26.82h-.096c-.313 0-7.766-1.202-17.732-11.877a.595.595 0 0 1-.19-.44.603.603 0 0 1 .878-.532.601.601 0 0 1 .19.155c8.595 9.172 15.351 11.132 16.758 11.456 3.822-3.715 3.378-14.786 3.378-14.895a.594.594 0 0 1 .159-.432.6.6 0 0 1 .418-.193.59.59 0 0 1 .44.151.59.59 0 0 1 .185.426c0 .493.48 12.166-4.003 16.061a.598.598 0 0 1-.385.12Zm-22.937-50.31a.605.605 0 0 1-.217 0c-.312-.12-7.814-2.969-12.406-8.727a.61.61 0 0 1-.162-.456.597.597 0 0 1 .446-.538.604.604 0 0 1 .654.248c3.606 4.544 9.34 7.213 11.24 8.079.589-3.907-2.404-12.022-2.404-12.13a.601.601 0 0 1 .587-.813.604.604 0 0 1 .543.392c.144.385 3.534 9.618 2.32 13.549a.603.603 0 0 1-.601.396Z"/>
  <path fill="#F8632B" d="M74.451 499.195H39.397a10.821 10.821 0 0 1-10.82-10.411l-1.466-42.364a3.712 3.712 0 0 1 2.253-3.549 3.72 3.72 0 0 1 1.45-.298H83.01a3.72 3.72 0 0 1 2.666 1.139 3.71 3.71 0 0 1 1.036 2.708l-1.442 42.364a10.821 10.821 0 0 1-10.82 10.411Z"/>
  <path fill="#F2AF4D" d="M83.01 442.573H72.78c-.793 3.426-.553 8.415 6.143 10.699a13.408 13.408 0 0 0 7.526.493l.264-7.345a3.712 3.712 0 0 0-2.253-3.549 3.72 3.72 0 0 0-1.45-.298ZM60.314 456.29c-1.37-4.809 1.202-10.339 3.258-13.717h-11.24c-6.468 10.819-2.549 30.523 15.015 26.291 8.703-2.092 14.642-.986 18.537.878l.3-8.511c-10.122-6.3-23.91 1.983-25.87-4.941Zm23.274 37.795c-8.56-18.801-23.887-.36-33.973-20.064-6.9-13.476-16.145-13.5-21.952-11.745l.325 9.257c18.032-7.045 17.239 22.408 32.566 20.1 8.187-1.202 12.84 3.126 15.388 7.429a10.816 10.816 0 0 0 7.646-4.977ZM36.15 481.583c-4.652 1.202-.252 11.577 3.776 8.812 4.027-2.765-.253-9.69-3.775-8.812Zm38.806-7.129c-3.186 1.9 2.404 8.644 4.809 5.686 2.404-2.957-2.392-7.116-4.809-5.686Z"/>
  <path fill="#245A77" d="M259.583 377.38H86.473s-28.611-82.696-26.808-130.037c1.094-28.743 11.348-48.771 30.162-58.905 12.154-6.612 27.902-9.016 47.064-7.009 49.565 5.205 70.242 58.641 73.464 85.69h44.42c.909 0 1.818.072 2.716.216h.121c.908.146 1.802.376 2.668.685a14.6 14.6 0 0 1 1.575.662c5.049 2.524 9.762 8.775 10.291 23.838.757 22.865-3.282 51.2-12.563 84.86Z"/>
  <path fill="#73BCE4" d="M236.586 377.981h-.144a.598.598 0 0 1-.445-.721c3.835-15.724 7.67-50.983 8.535-67.417.156-3.053.192-6.347.229-9.846.132-13.596.276-29.007 8.775-32.458a.608.608 0 0 1 .697.097.592.592 0 0 1 .128.691.594.594 0 0 1-.368.318c-7.754 3.198-7.91 18.189-8.03 31.413 0 3.51-.072 6.816-.229 9.893-.853 16.47-4.712 51.849-8.559 67.634a.597.597 0 0 1-.589.396Zm-71.288 7.009 21.086 110.021a4.198 4.198 0 0 1-2.338 4.579 4.203 4.203 0 0 1-4.302-.44 4.199 4.199 0 0 1-1.511-2.179l-32.77-111.981h19.835Zm-65.217 0L78.996 495.011a4.198 4.198 0 0 0 2.337 4.579 4.206 4.206 0 0 0 4.302-.44 4.198 4.198 0 0 0 1.511-2.179l32.771-111.981h-19.836Z"/>
  <path fill="#245A77" d="m247.946 384.99 21.086 110.021a4.198 4.198 0 0 1-2.338 4.579 4.202 4.202 0 0 1-4.302-.44 4.199 4.199 0 0 1-1.511-2.179l-32.77-111.981h19.835Zm-65.217 0-21.085 110.021a4.198 4.198 0 0 0 2.337 4.579 4.196 4.196 0 0 0 5.813-2.619l32.771-111.981h-19.836Z"/>
  <path fill="#73BCE4" d="m259.571 377.38-7.213 13.621H91.138L86.46 377.38h173.11Z"/>
  <path fill="#245A77" d="M116.815 391.602H100.73a.605.605 0 0 1-.425-.176.605.605 0 0 1 0-.85.601.601 0 0 1 .425-.176h16.085a.598.598 0 0 1 .601.601.601.601 0 0 1-.601.601Zm47.029 0h-14.426a.602.602 0 0 1 0-1.202h14.426a.601.601 0 1 1 0 1.202Zm95.739-14.222-5.181 13.621h-89.128a280.297 280.297 0 0 1-3.715-13.621h98.024Zm-70.59-300.142s-.097-.18-.301-.504c-1.419-2.26-8.163-11.277-24.344-9.618-18.477 1.96-25.69 24.5-19.979 33.817 5.71 9.317-5.001 13.572-16.085 18.237-11.084 4.664-19.98 19.835-9.461 33.516 10.519 13.68 64.159 16.83 67.621.601 3.462-16.229-7.514-29.309-6.203-42.388l8.752-33.66Z"/>
  <path fill="#F2AF4D" d="m178.197 113.159-1.719 8.8-1.743 8.92-9.317-1.203 1.611-17.046.493-5.193 10.675 5.722Z"/>
  <path fill="#245A77" d="m178.197 113.159-1.719 8.8c-5.566-.722-8.199-5.29-9.449-9.329l.493-5.193 10.675 5.722Z"/>
  <path fill="#F8632B" d="M144.982 129.532s21.638-9.16 44.035 1.803l-4.208 12.923-36.81-1.346-3.017-13.38Z"/>
  <path fill="#F8632B" d="M120.338 158.384s19.535-20.136 45.381-19.535c25.846.601 40.873 21.338 40.873 21.338s13.224 20.737 12.923 30.956c-.3 10.218-7.513 38.468-7.513 38.468a134.617 134.617 0 0 0 8.715 24.344c5.711 11.721 35.464 33.36 40.273 38.169 4.808 4.808 8.715 51.848-54.698 51.848-63.414 0-87.758-16.685-87.758-57.559 0-40.873 1.804-128.029 1.804-128.029Z"/>
  <path fill="#F2AF4D" d="M183.631 143.297a.624.624 0 0 1-.228 0 48.713 48.713 0 0 0-17.696-3.799 52.059 52.059 0 0 0-15.748 2.14.623.623 0 0 1-.66-.216.627.627 0 0 1-.053-.691.616.616 0 0 1 .376-.295 53.17 53.17 0 0 1 16.121-2.188 49.928 49.928 0 0 1 18.104 3.907.601.601 0 0 1-.216 1.142Zm73.355 309.41-2.091 8.103-3.919 15.135h-11.024l3.703-17.131 1.31-6.107h12.021Z"/>
  <path fill="#245A77" d="m256.986 452.707-2.091 8.103-11.24-1.996 1.31-6.107h12.021Z"/>
  <path fill="#F8632B" d="M288.831 500h-56.898a45.662 45.662 0 0 1 .121-4.809 67.131 67.131 0 0 1 6.287-23.249c7.021 1.803 15.231.204 15.231.204s31.461 16.025 32.855 18.237a16.902 16.902 0 0 1 1.563 4.808c.529 2.453.841 4.809.841 4.809Z"/>
  <path fill="#245A77" d="M288.831 500h-56.898a45.662 45.662 0 0 1 .121-4.809h55.936c.529 2.453.841 4.809.841 4.809Zm-53.844-206.734c-20.304-1.467-34.586 20.304-24.488 37.976 2.549 4.46 6.011 7.814 9.617 9.256 12.022 4.809 37.267 3.21 37.267 3.21l-18.032 111.8h22.035s42.881-117.005 44.877-132.237c1.995-15.231-8.211-24.644-26.652-26.447-10.747-1.046-30.282-2.513-44.624-3.558Z"/>
  <path fill="#73BCE4" d="M247.261 450.207h-.12a.607.607 0 0 1-.481-.71l24.223-124.386-53.147-6.24a.594.594 0 0 1-.405-.226.593.593 0 0 1-.124-.447.616.616 0 0 1 .661-.529l53.797 6.312a.597.597 0 0 1 .517.709l-24.344 125.024a.603.603 0 0 1-.577.493Z"/>
  <path fill="#73BCE4" d="M258.585 342.506a.59.59 0 0 1-.264-.06.604.604 0 0 1-.265-.806c.385-.781 9.69-19.114 23.587-23.742a.599.599 0 0 1 .793.612.594.594 0 0 1-.205.413.593.593 0 0 1-.204.117c-13.428 4.472-22.841 22.949-22.841 23.141a.601.601 0 0 1-.601.325Z"/>
  <path fill="#F2AF4D" d="m195.869 452.707-2.044 7.886-3.967 15.352h-11.012l3.583-16.674 1.418-6.564h12.022Z"/>
  <path fill="#245A77" d="m195.869 452.707-2.044 7.886-11.396-1.322 1.418-6.564h12.022Z"/>
  <path fill="#F8632B" d="M227.726 500h-56.898a45.662 45.662 0 0 1 .12-4.809 67.155 67.155 0 0 1 6.288-23.249c7.02 1.803 15.231.204 15.231.204s31.46 16.025 32.855 18.237a16.902 16.902 0 0 1 1.563 4.808c.528 2.453.841 4.809.841 4.809Z"/>
  <path fill="#245A77" d="M227.726 500h-56.898a45.662 45.662 0 0 1 .12-4.809h55.937c.528 2.453.841 4.809.841 4.809Z"/>
  <path fill="#73BCE4" d="M245.157 323.271c-1.995 15.232-44.876 132.237-44.876 132.237h-22.036l18.033-111.8c-6.683.384-13.382.384-20.064 0-6.239-.421-12.659-1.322-17.203-3.138-12.022-4.808-22.444-30.859-2.813-48.495 0 0 43.951 3.018 62.32 4.809 18.368 1.791 28.647 11.168 26.639 26.387Z"/>
  <path fill="#245A77" d="M210.499 324.582a64.902 64.902 0 0 0-14.221 19.126c-6.683.384-13.382.384-20.064 0l34.285-19.126Z"/>
  <path fill="#245A77" d="M186.155 450.207h-.12a.607.607 0 0 1-.481-.71l24.224-124.386-53.147-6.24a.599.599 0 0 1-.529-.673.615.615 0 0 1 .661-.529l53.796 6.312a.587.587 0 0 1 .412.242.594.594 0 0 1 .105.467l-24.344 125.024a.596.596 0 0 1-.577.493Z"/>
  <path fill="#245A77" d="M197.468 342.506a.594.594 0 0 1-.265-.06.603.603 0 0 1-.264-.806c.385-.781 9.689-19.114 23.586-23.742a.602.602 0 1 1 .385 1.142c-13.428 4.472-22.841 22.949-22.841 23.141a.605.605 0 0 1-.601.325Z"/>
  <path fill="#F8632B" d="M199.884 153.78c-11.312-6.011-27.854 5.205-20.232 24.848s59.29 63.81 68.402 64.111c9.113.301 8.536-24.44 8.536-24.44s-36.87-53.904-56.706-64.519Z"/>
  <path fill="#245A77" d="m216.053 227.363 11.42-68.522h-40.572l-11.421 68.522h40.573Z"/>
  <path fill="#E9F3FF" d="m182.777 156.052 4.124 2.789h40.572l-4.123-2.789h-40.573Z"/>
  <path fill="#73BCE4" d="m182.777 156.052-11.42 68.522 4.123 2.789 11.421-68.522-4.124-2.789Z"/>
  <path fill="#F8632B" d="M248.054 242.739c-2.801-.349-9.617-7.033-14.281-12.022a213.47 213.47 0 0 1-4.941-5.409c-4.809-14.835 6.215-20.737 6.215-20.737s2.669 1.286 6.311 3.294l.145.072c6.948 3.847 17.299 10.23 19.39 15.267 3.198 7.706 2.441 21.434-12.839 19.535Z"/>
  <path fill="#F2AF4D" d="M243.366 240.563a.604.604 0 0 1-.385-.132 97.799 97.799 0 0 1-7.994-7.55.609.609 0 0 1-.122-.659.607.607 0 0 1 .794-.316.63.63 0 0 1 .194.134 96.234 96.234 0 0 0 7.886 7.453.6.6 0 0 1-.373 1.07Zm8.872-25.389a.597.597 0 0 1-.349-.109c-2.548-1.803-5.614-3.726-9.112-5.71a.6.6 0 0 1 .589-1.046c3.534 2.008 6.636 3.955 9.209 5.783a.595.595 0 0 1 .213.66.596.596 0 0 1-.55.422Z"/>
  <path fill="#73BCE4" d="M233.773 230.717a213.47 213.47 0 0 1-4.941-5.409c-4.809-14.835 6.215-20.737 6.215-20.737s2.669 1.286 6.311 3.294c1.01 4.916 1.744 15.411-7.585 22.852Z"/>
  <path fill="#F2AF4D" d="m219.912 212.18 4.111 1.106 7.718 7.718s5.614-6.516 3.005-13.32l-7.008-4.808-4.208-9.822-3.618 19.126Z"/>
  <path fill="#F2AF4D" d="M222.965 190.938a23.134 23.134 0 0 0-7.513-6.311c-1.947-1.046-3.907 1.478-2.032 4.929 0 0-3.053 2.404-.12 6.239 0 0-3.029 2.56-.096 6.011 0 0-3.534 1.322-1.046 5.013 2.489 3.69 7.213 6.912 8.872 6.107 1.659-.806.457-4.809.457-4.809s3.258-1.948 1.202-6.359c0 0 2.308-2.2.301-5.759-.025 0 2.68-1.346-.025-5.061Z"/>
  <path fill="#245A77" d="M219.912 207.456a.602.602 0 0 1-.481-.241 16.698 16.698 0 0 0-5.289-4.255.605.605 0 0 1-.246-.782.606.606 0 0 1 .763-.3 17.646 17.646 0 0 1 5.734 4.616.598.598 0 0 1-.165.872.598.598 0 0 1-.316.09Zm1.058-5.891a.601.601 0 0 1-.505-.276 14.428 14.428 0 0 0-6.011-4.725.6.6 0 0 1-.015-1.111.601.601 0 0 1 .46-.007 15.489 15.489 0 0 1 6.6 5.193.61.61 0 0 1 .016.624.597.597 0 0 1-.545.302Zm0-6.011a.601.601 0 0 1-.505-.276 17.63 17.63 0 0 0-5.831-5.145.609.609 0 0 1-.297-.352.599.599 0 0 1 .85-.718 18.543 18.543 0 0 1 6.288 5.566.604.604 0 0 1 .022.612.6.6 0 0 1-.527.313Z"/>
  <path fill="#F8632B" d="M165.214 225.103s-3.402 2.513-8.68 6.011c-9.472 6.203-24.98 15.46-37.603 18.682-19.631 5.013-33.06 2.404-34.057-10.219-.998-12.622 16.83-62.139 35.464-81.145 11.216-11.421 29.248 17.636 20.833 31.46-5.277 8.668-12.418 21.23-12.418 21.23l14.714-4.219 8.331-2.405c14.017 5.374 13.416 20.605 13.416 20.605Z"/>
  <path fill="#F2AF4D" d="M118.931 250.349a.607.607 0 0 1-.144-1.203c11.372-2.897 25.137-10.759 34.682-16.83a.6.6 0 0 1 .649 1.01c-9.617 6.119-23.514 14.041-35.031 16.987l-.156.036Zm9.822-38.674a.596.596 0 0 1-.518-.302.594.594 0 0 1 .001-.599c.072-.121 7.213-12.671 12.43-21.242 3.222-5.29 2.633-13.873-1.491-21.868-3.378-6.539-8.331-10.963-12.622-11.264a.6.6 0 0 1-.559-.643.605.605 0 0 1 .205-.413.608.608 0 0 1 .438-.146c4.808.337 9.99 4.905 13.608 11.913 4.316 8.416 4.893 17.408 1.455 23.046-4.232 6.948-9.726 16.505-11.673 19.931l10.206-2.933a.623.623 0 0 1 .769.433.604.604 0 0 1-.057.474.612.612 0 0 1-.375.295l-11.637 3.33-.18-.012Z"/>
  <path fill="#73BCE4" d="M165.214 225.103s-3.402 2.513-8.68 6.011c-12.923-6.576-13.404-19.33-13.067-24.211l8.331-2.405c14.017 5.374 13.416 20.605 13.416 20.605Z"/>
  <path fill="#F2AF4D" d="M152.796 207.768s2.103 10.219 9.112 13.224l13.32-11.625s13.32-.577 14.979-1.779a4.678 4.678 0 0 0 1.575-3.606 5.265 5.265 0 0 0 1.659-5.41 6.476 6.476 0 0 0 1.202-6.612s3.678-6.239 4.207-8.415c.529-2.176-2.104-2.849-4.051-.745a13.358 13.358 0 0 1-4.135 3.462c-1.046.457-11.12 2.476-11.12 2.476a3.706 3.706 0 0 1-1.9-1.935l1.094-6.552a10.574 10.574 0 0 0-5.59 6.083c-1.274 4.28-3.45 13.38-3.45 13.38l-16.902 8.054Z"/>
  <path fill="#245A77" d="M189.437 377.38H86.473s-28.611-82.696-26.808-130.037c.144-3.943.465-7.722.962-11.336 1.79-13.08 21.085-12.226 21.638.962.445 10.23 1.6 21.254 3.246 32.566h71.06l3.786.096c12.899 0 17.54 7.73 19.054 22.396 2.417 23.238 10.026 85.353 10.026 85.353Z"/>
  <path fill="#73BCE4" d="M156.583 270.136h-71.06a.598.598 0 0 1-.589-.517c-1.731-11.913-2.825-22.841-3.246-32.626a.6.6 0 0 1 .577-.625.58.58 0 0 1 .436.155.594.594 0 0 1 .19.422c.42 9.557 1.478 20.316 3.161 31.989h70.543a.606.606 0 0 1 .551.377.603.603 0 0 1-.004.46.613.613 0 0 1-.329.322.606.606 0 0 1-.23.043Zm4.652 106.355a.597.597 0 0 1-.589-.481c-3.222-15.015-18.622-90.607-5.734-104.528a.605.605 0 0 1 .667-.188.605.605 0 0 1 .4.566.6.6 0 0 1-.19.44c-12.755 13.765 4.063 94.309 6.011 103.457a.606.606 0 0 1-.083.449.607.607 0 0 1-.374.261h-.132l.024.024Z"/>
  <path fill="#F2AF4D" d="M174.879 80.7c-10.026 5.458-15.327 36.222 2.561 37.724 17.888 1.503 17.876-48.843-2.561-37.723Z"/>
  <path fill="#245A77" d="M163.411 105.489s3.462-8.716 7.814-14.125c0 0 10.675 6.768 19.835 3.462 9.161-3.306 14.282-20.881 6.468-24.344-7.814-3.462-12.022 4.364-12.022 4.364s-33.612-9.773-22.095 30.643Z"/>
  <path fill="#F2AF4D" d="M167.222 102.784s-2.849-11.264-11.866-9.016c-9.016 2.248-.745 19.391 12.178 13.681l-.312-4.665Z"/>
  <path fill="#245A77" d="M163.735 105.441a.604.604 0 0 1-.565-.385c0-.06-2.572-6.42-7.922-7.213a.604.604 0 0 1-.499-.454.592.592 0 0 1 .069-.46.606.606 0 0 1 .611-.288c6.01.914 8.751 7.694 8.859 7.982a.602.602 0 0 1-.553.818Z"/>
  <path fill="#245A77" d="M158.867 104.347a.6.6 0 0 1-.601-.589 8.503 8.503 0 0 1 1.43-4.376.603.603 0 0 1 1.022.637 7.465 7.465 0 0 0-1.202 3.703.595.595 0 0 1-.168.428.602.602 0 0 1-.421.185l-.06.012Zm13.295-6.251s2.14-3.871 5.073-2.224a.98.98 0 0 1 .914-.878c.782 0 .757 2.477.757 2.477a17.01 17.01 0 0 0-6.744.625Zm16.807 2.645s-.061-4.04-2.405-3.03a.926.926 0 0 0-.529-.853c-.865-.18-1.202 2.127-1.202 2.127 1.53.13 2.979.745 4.136 1.756Zm-11.116 2.349c.086-1.132-.584-2.106-1.498-2.176-.913-.07-1.724.791-1.811 1.923-.086 1.132.584 2.106 1.498 2.176.913.07 1.724-.791 1.811-1.923Z"/>
  <path fill="#fff" d="M177.073 102.296a.445.445 0 1 0-.887-.067.445.445 0 0 0 .887.067Z"/>
  <path fill="#245A77" d="M188.836 103.784c.091-1.135-.578-2.115-1.494-2.188-.916-.073-1.733.788-1.824 1.923-.09 1.135.579 2.115 1.495 2.188.916.074 1.732-.787 1.823-1.923Z"/>
  <path fill="#fff" d="M186.819 103.043a.445.445 0 1 0-.887-.07.445.445 0 0 0 .887.07Z"/>
  <path fill="#245A77" d="M181.647 110.382a4.198 4.198 0 0 1-1.286-.205.6.6 0 0 1 .373-1.142s1.707.541 2.212-.517a.33.33 0 0 0 .048-.174.333.333 0 0 0-.048-.174 2.663 2.663 0 0 0-1.647-.613.6.6 0 0 1-.553-.637l.276-4.004a.616.616 0 0 1 .637-.553.6.6 0 0 1 .553.638l-.24 3.45a2.946 2.946 0 0 1 2.008 1.142 1.504 1.504 0 0 1 0 1.466c-.221.421-.559.77-.972 1.005a2.488 2.488 0 0 1-1.361.318Z"/>
  <path fill="#fff" d="M181.443 114.06s-4.556 2.645-7.093-2.933l7.093 2.933Z"/>
  <path fill="#245A77" d="M232.282 254.256v231.571a6.913 6.913 0 0 0 13.825 0V254.256a6.913 6.913 0 1 0-13.825 0Z"/>
  <path fill="#73BCE4" d="M373.018 247.343H153.926a6.913 6.913 0 1 0 0 13.825h219.092a6.913 6.913 0 1 0 0-13.825Z"/>
  <path fill="#E9F3FF" d="M188.632 247.343h-83.249a6.913 6.913 0 1 0 0 13.825h83.249a6.912 6.912 0 0 0 6.912-6.912 6.912 6.912 0 0 0-6.912-6.913Z"/>
  <path fill="#F2AF4D" d="M331.532 476.606h-11.805l-4.628-16.626-2.068-7.417 13.68-1.647 1.239 6.6 3.582 19.09Z"/>
  <path fill="#245A77" d="m327.95 457.516-12.851 2.464-2.068-7.417 13.68-1.647 1.239 6.6Zm4.964 14.895a167.208 167.208 0 0 1-17.262-.758c-6.528 10.519-29.237 18.333-30.175 19.932a9.13 9.13 0 0 0-.492 3.606c0 2.321.228 4.809.228 4.809h50.25a153.809 153.809 0 0 0-2.549-27.589Z"/>
  <path fill="#73BCE4" d="M335.415 495.191h-50.406c0 2.321.228 4.809.228 4.809h50.25c0-1.623-.024-3.21-.072-4.809Z"/>
  <path fill="#245A77" d="M372.261 304.253s-93.023-2.007-100.981 0c-7.958 2.008-7.333 14.426-6.251 22.444 1.082 8.019 44.479 129.028 44.479 129.028h19.92s-11.889-76.542-17.383-102.58c0 0 85.87 15.628 103.385 10.819 17.516-4.808 16.638-39.274 16.638-39.274l-59.807-20.437Z"/>
  <path fill="#73BCE4" d="M316.649 451.517a.6.6 0 0 1-.565-.409l-29.573-116.609a.606.606 0 0 1 .316-.682.608.608 0 0 1 .261-.063h90.751l8.98-16.517a.599.599 0 0 1 .593-.311.597.597 0 0 1 .514.429.597.597 0 0 1-.049.459l-9.16 16.83a.603.603 0 0 1-.529.312H287.87l29.417 115.804a.615.615 0 0 1-.065.456.594.594 0 0 1-.368.277l-.205.024Z"/>
  <path fill="#73BCE4" d="M309.448 351.438a.606.606 0 0 1-.276-.072c-.18-.097-17.888-9.545-28.07-23.322a.593.593 0 0 1-.157-.465.598.598 0 0 1 .242-.426.606.606 0 0 1 .479-.105.59.59 0 0 1 .397.287c10.002 13.548 27.482 22.841 27.65 22.961a.597.597 0 0 1 .324.676.604.604 0 0 1-.589.466Zm68.764-16.53a.601.601 0 0 1-.505-.276c-9.617-14.679-.685-23.226-.589-23.31a.602.602 0 0 1 .979.467.599.599 0 0 1-.162.41c-.348.325-8.283 7.971.782 21.771a.61.61 0 0 1 .031.622.604.604 0 0 1-.536.316Z"/>
  <path fill="#F2AF4D" d="M262.047 450.916v25.69h-12.478l-1.767-14.871-1.082-9.172 15.327-1.647Z"/>
  <path fill="#245A77" d="m246.72 452.563 15.327-1.647v7.874l-14.245 2.945-1.082-9.172ZM267.397 500H201.88c.199-1.618.492-3.224.877-4.809a8.844 8.844 0 0 1 1.527-3.606c1.611-1.599 30.162-9.413 41.222-19.932 6.446.583 12.918.836 19.39.758a142.454 142.454 0 0 1 2.405 22.78c.072 1.599.096 3.162.096 4.809Z"/>
  <path fill="#73BCE4" d="M267.397 500H201.88c.199-1.618.492-3.224.877-4.809h64.568c.048 1.599.072 3.162.072 4.809Zm61.911-195.747s-86.952-2.007-97.771 0c-10.82 2.008-13.068 14.426-13.621 22.444-.553 8.019 26.448 129.028 26.448 129.028h20.028s3.209-76.542 2.404-102.58c0 0 80.148 15.628 104.191 10.819 24.043-4.808 31.256-39.274 31.256-39.274l-72.935-20.437Z"/>
  <path fill="#245A77" d="M244.352 456.326a.606.606 0 0 1-.589-.469c-1.106-4.953-27.001-121.358-26.448-129.208.938-13.692 5.686-21.434 14.114-22.985 10.759-1.995 94.345-.096 97.903 0a.62.62 0 0 1 .229.05.617.617 0 0 1 .319.332.59.59 0 0 1-.147.649.613.613 0 0 1-.425.171c-.866 0-87.012-1.983-97.651 0-7.814 1.443-12.238 8.812-13.128 21.891-.528 7.682 26.159 127.645 26.448 128.859a.602.602 0 0 1-.457.722h-.132l-.036-.012Z"/>
  <path fill="#245A77" d="M254.774 451.517a.595.595 0 0 1-.408-.159.597.597 0 0 1-.193-.394l-10.014-116.609a.6.6 0 0 1 .601-.649h84.692l15.857-16.638a.602.602 0 0 1 .865.83l-16.024 16.83a.606.606 0 0 1-.433.192H245.41l9.966 115.96a.617.617 0 0 1-.142.44.599.599 0 0 1-.411.209l-.049-.012Z"/>
  <path fill="#245A77" d="M263.995 351.438a.6.6 0 0 1-.313-.096c-.144-.097-15.087-9.534-24.968-23.298a.599.599 0 0 1 .106-.88.607.607 0 0 1 .7 0 .596.596 0 0 1 .167.183c9.726 13.56 24.476 22.841 24.621 22.985a.6.6 0 0 1 .042.98.602.602 0 0 1-.355.126Zm65.71-16.53a.605.605 0 0 1-.517-.288c-2.801-4.581-3.703-9.029-2.681-13.224a17.86 17.86 0 0 1 7.489-10.158.608.608 0 0 1 .83.204.605.605 0 0 1-.204.83 16.937 16.937 0 0 0-6.949 9.424c-.938 3.859-.084 7.995 2.549 12.286a.609.609 0 0 1 .019.618.596.596 0 0 1-.536.308Z"/>
  <path fill="#F2AF4D" d="M361.153 103.89s-1.899 3.186-3.005 5.097c-1.106 1.912 5.205 2.717 5.205 2.717l-2.2-7.814Z"/>
  <path fill="#245A77" d="M363.353 112.305h-.072c-.818-.108-4.941-.709-5.722-2.272a1.394 1.394 0 0 1 .06-1.346 673.535 673.535 0 0 1 3.005-5.109l1.034.613s-1.899 3.185-3.005 5.097a.184.184 0 0 0-.03.102c0 .036.01.072.03.102.324.661 2.741 1.347 4.808 1.611a.597.597 0 0 1 .409.214.59.59 0 0 1 .138.441.596.596 0 0 1-.421.522.597.597 0 0 1-.234.025Z"/>
  <path fill="#F2AF4D" d="M392.782 100.777c-.914 15.267-13.717 21.891-22.216 20.617a11.497 11.497 0 0 1-2.585-.674c-9.016-3.606-10.278-24.043-6.612-34.465 2.405-6.817 28.852-12.022 31.256 9.016.217 1.827.27 3.67.157 5.506Z"/>
  <path fill="#245A77" d="M392.782 100.777c-.914 15.267-13.717 21.891-22.216 20.617 7.213-5.795 8.86-19.908 8.86-19.908s6.912-.553 13.356-.709Z"/>
  <path fill="#F2AF4D" d="m387.889 112.858.974 18.706-12.467.673.565-20.533 10.928 1.154Z"/>
  <path fill="#245A77" d="M352.75 62.416s-12.418 9.016-5.205 23.646c7.213 14.63 25.041 8.21 25.041 8.21l2.007 11.121s2.2 11.721 11.926 11.721c9.725 0 19.138-18.838 19.03-21.338-.109-2.5-4.809-8.812-4.809-8.812s.301-13.62-4.604-15.929c-4.905-2.308-19.139 2.91-19.139 2.91s-10.819-9.726-24.247-11.53Z"/>
  <path fill="#F2AF4D" d="M373.319 107.773s3.402-9.112 10.218-7.513c6.816 1.599 2.008 13.62-8.715 12.526l-1.503-5.013Z"/>
  <path fill="#245A77" d="M375.819 110.526a.603.603 0 0 1-.216 0 .606.606 0 0 1-.33-.321.606.606 0 0 1-.007-.46c.097-.253 2.405-6.119 7.682-6.913a.615.615 0 0 1 .685.505.6.6 0 0 1-.505.685c-4.568.698-6.72 6.107-6.744 6.155a.598.598 0 0 1-.565.349Z"/>
  <path fill="#245A77" d="M380.003 109.588a.603.603 0 0 1-.589-.613 6.368 6.368 0 0 0-1.058-3.137.601.601 0 1 1 1.022-.637 7.407 7.407 0 0 1 1.202 3.81.603.603 0 0 1-.577.577Zm-17.888 23.551s25.774-13.969 45.609-3.98l-4.051 13.224-36.137 2.404-5.421-11.648Z"/>
  <path fill="#245A77" d="M356.958 146.963a64.32 64.32 0 0 1 38.468-8.715c22.697 1.959 30.211 13.223 32.615 19.39 2.404 6.168 15.628 99.936 10.819 169.059 0 0-32.061 12.022-65.012 8.416-32.951-3.607-58.16-36.678-58.16-36.678s24.644-58.906 26.447-88.96c1.803-30.053 4.556-53.459 14.823-62.512Z"/>
  <path fill="#73BCE4" d="M369.159 141.986a.605.605 0 0 1-.697-.504.616.616 0 0 1 .108-.454.616.616 0 0 1 .397-.244 66.026 66.026 0 0 1 26.556-3.161c2.535.212 5.056.573 7.549 1.082a.592.592 0 0 1 .47.474.6.6 0 0 1-.001.235.615.615 0 0 1-.709.469 63.522 63.522 0 0 0-7.405-1.058 64.839 64.839 0 0 0-26.075 3.113l-.193.048Z"/>
  <path fill="#F2AF4D" d="M269.91 163.397c-.301-.096-10.615-7.514-10.615-7.514s-4.004-4.712-5.807-5.205a38.797 38.797 0 0 1-7.718-3.21c-1.202-.901-4.808-5.109-6.708-5.71-1.899-.601-1.899 3.102.301 6.011 2.2 2.909 2.801 4.412 1.202 5.409-1.599.998-8.619.505-10.723-.204-2.104-.709-7.814-3.811-9.413-3.907-1.599-.096-1.599 2.609.204 3.811 1.804 1.202 10.916 8.018 14.33 8.92 3.414.902 17.227.601 17.227.601l12.923 11.625 4.797-10.627Z"/>
  <path fill="#73BCE4" d="m282.172 166.655-12.166-6.913s-12.467 1.96-12.467 19.836l10.219 9.918s15.471-7.67 14.414-22.841Z"/>
  <path fill="#245A77" d="M360.768 145.966c-12.658-.253-42.075 46.679-42.075 46.679l-41.679-25.449s-9.016 3.606-9.413 16.229c0 0 36.666 46.679 51.092 50.286 14.426 3.606 51.488-36.065 58.1-48.687 6.612-12.623 3.607-38.662-16.025-39.058Z"/>
  <path fill="#73BCE4" d="M316.373 218.792a.6.6 0 0 1-.589-.517 58.612 58.612 0 0 1 2.031-24.043.605.605 0 0 1 1.111-.075.598.598 0 0 1 .031.46 57.324 57.324 0 0 0-1.983 23.466.595.595 0 0 1-.11.447.606.606 0 0 1-.395.238h-.084l-.012.024Zm27.361 3.378a.596.596 0 0 1-.574-.398.606.606 0 0 1 .189-.672c14.005-11.565 28.936-28.731 32.915-36.353 4.112-7.85 4.148-19.908.084-28.058-2.753-5.542-7.213-8.944-12.742-9.87a.61.61 0 0 1-.046-1.193.597.597 0 0 1 .238-.009c6.011.986 10.687 4.628 13.632 10.519 4.22 8.415 4.184 21.001-.096 29.152-4.039 7.718-19.102 25.065-33.215 36.714a.605.605 0 0 1-.385.168Z"/>
  <path fill="#245A77" d="m358.064 384.99 21.085 110.021a4.198 4.198 0 0 1-2.337 4.579 4.196 4.196 0 0 1-5.813-2.619L338.228 384.99h19.836Z"/>
  <path fill="#73BCE4" d="m292.847 384.99-21.086 110.021a4.198 4.198 0 0 0 2.338 4.579 4.202 4.202 0 0 0 4.301-.44 4.188 4.188 0 0 0 1.511-2.179l32.771-111.981h-19.835Zm147.865 0 21.085 110.021a4.198 4.198 0 0 1-2.337 4.579 4.196 4.196 0 0 1-5.813-2.619L420.876 384.99h19.836Zm-65.217 0-21.086 110.021a4.198 4.198 0 0 0 2.338 4.579 4.202 4.202 0 0 0 4.302-.44 4.199 4.199 0 0 0 1.511-2.179l32.77-111.981h-19.835Z"/>
  <path fill="#73BCE4" d="m452.337 377.38-7.213 13.621H285.73l-6.504-13.621h173.111Z"/>
  <path fill="#245A77" d="M309.449 391.602H293.82a.605.605 0 0 1-.425-.176.605.605 0 0 1 0-.85.601.601 0 0 1 .425-.176h15.629a.601.601 0 1 1 0 1.202Zm142.888-14.222-5.47 13.621h-78.802a280.469 280.469 0 0 1-3.714-13.621h87.986Z"/>
  <path fill="#73BCE4" d="M477.173 273.995c-5.205 54.097-24.836 103.385-24.836 103.385H279.226c-25.173-53.7-26.255-75.663-22.155-92.169a23.384 23.384 0 0 1 22.732-17.648h57.427s19.331-83.742 73.031-83.742a93.128 93.128 0 0 1 22.468 2.525c22.3 5.578 35.62 20.076 41.583 41.005a100.98 100.98 0 0 1 3.45 21.218v.193c0 .781.084 1.575.12 2.404.036.83.06 1.334.072 1.996a166.185 166.185 0 0 1-.781 20.833Z"/>
  <path fill="#245A77" d="M445.256 377.981h-166.03a.6.6 0 0 1-.541-.348c-24.524-52.27-26.603-74.798-22.191-92.566.152-.617.328-1.226.529-1.827a.593.593 0 0 1 .303-.348.599.599 0 0 1 .664.086.605.605 0 0 1 .175.646 21.046 21.046 0 0 0-.505 1.731c-4.34 17.468-2.272 39.671 21.951 91.364h165.657a.634.634 0 0 1 .625.637.631.631 0 0 1-.637.625Z"/>
  <path fill="#245A77" d="M477.173 273.995c-5.205 54.097-24.836 103.385-24.836 103.385h-87.986a290.146 290.146 0 0 1-7.658-46.884c-1.274-16.589-.938-34.55 2.669-51.692 11.625-55.299 40.08-82.156 74.137-77.347.336 0 .673.096 1.01.168l.577.084a50.96 50.96 0 0 1 42.676 46.884v.193c0 .781.084 1.575.12 2.404.036.83.06 1.323.072 1.996a166.183 166.183 0 0 1-.781 20.809Z"/>
  <path fill="#73BCE4" d="M449.812 377.945h-82.035a.6.6 0 0 1-.425-1.026.6.6 0 0 1 .425-.176h82.047a.598.598 0 0 1 .552.377.602.602 0 0 1-.564.825Z"/>
  <path fill="#245A77" d="M361.682 100.5s0-2.56.83-2.777c.829-.216.637.71.637.71s4.171-.746 5.265 1.935a11.949 11.949 0 0 0-6.732.132Zm2.416 5.554c.943 0 1.707-.942 1.707-2.104 0-1.162-.764-2.103-1.707-2.103-.942 0-1.707.941-1.707 2.103 0 1.162.765 2.104 1.707 2.104Zm.349 9.413a.601.601 0 0 1-.507-.992.602.602 0 0 1 .411-.21 6.97 6.97 0 0 0 3.714-2.405.602.602 0 0 1 1.062.549.6.6 0 0 1-.136.209 8.02 8.02 0 0 1-4.436 2.873h-.096l-.012-.024Z"/>
  <path fill="#fff" d="M364.447 103.469a.589.589 0 1 0 0-1.177.589.589 0 0 0 0 1.177Z"/>
  <path fill="#E9F3FF" d="M350.045 11.577V37.11a11.575 11.575 0 0 0 11.565 11.576h1.959v9.317a2.469 2.469 0 0 0 1.493 2.327 2.465 2.465 0 0 0 2.715-.524l11.12-11.12h29.597a11.577 11.577 0 0 0 11.577-11.576V11.577A11.577 11.577 0 0 0 408.494 0H361.61a11.576 11.576 0 0 0-11.565 11.577Z"/>
  <path fill="#245A77" d="M405.945 9.317h-40.464a2.906 2.906 0 0 0-2.909 2.903 2.906 2.906 0 0 0 2.909 2.903h40.464c1.607 0 2.91-1.3 2.91-2.903a2.907 2.907 0 0 0-2.91-2.903Zm0 11.817h-40.464a2.906 2.906 0 0 0-2.909 2.903 2.906 2.906 0 0 0 2.909 2.903h40.464c1.607 0 2.91-1.3 2.91-2.903a2.907 2.907 0 0 0-2.91-2.903Zm-21.638 11.829h-18.826a2.906 2.906 0 0 0-2.909 2.903 2.906 2.906 0 0 0 2.909 2.904h18.826c1.606 0 2.909-1.3 2.909-2.904a2.906 2.906 0 0 0-2.909-2.903Z"/>
  <path fill="#73BCE4" d="M249.87 44.636V70.17a11.578 11.578 0 0 0 11.564 11.576h1.96v9.377a2.464 2.464 0 0 0 4.207 1.743l11.12-11.12h29.597a11.575 11.575 0 0 0 11.577-11.576V44.636a11.577 11.577 0 0 0-11.577-11.577h-46.884a11.578 11.578 0 0 0-11.564 11.577Z"/>
  <path fill="#fff" d="M303.919 62.404a5.206 5.206 0 1 0-.001-10.411 5.206 5.206 0 0 0 .001 10.41Zm-19.043 0a5.206 5.206 0 1 0 0-10.412 5.206 5.206 0 0 0 0 10.412Zm-19.03 0a5.206 5.206 0 1 0 0-10.412 5.206 5.206 0 0 0 0 10.412Z"/>
  <path fill="#73BCE4" d="M109.061 98.589a7.67 7.67 0 1 0 0-15.34 7.67 7.67 0 0 0 0 15.34Z"/>
  <path fill="#E9F3FF" d="M115.228 65.217a3.306 3.306 0 1 0 0-6.612 3.306 3.306 0 0 0 0 6.612Zm102.484 5.109a6.612 6.612 0 1 0 0-13.223 6.612 6.612 0 0 0 0 13.223Zm109.997 54.999a8.018 8.018 0 1 0-.001-16.037 8.018 8.018 0 0 0 .001 16.037Z"/>
  <path fill="#73BCE4" d="M490 275.185a3.594 3.594 0 1 0 0-7.188 3.594 3.594 0 0 0 0 7.188Zm-52.642-134.821a4.665 4.665 0 1 0-.001-9.33 4.665 4.665 0 0 0 .001 9.33Z"/>
  <path fill="#E9F3FF" d="M507.912 261.469a4.665 4.665 0 1 0-.001-9.33 4.665 4.665 0 0 0 .001 9.33Zm-48.266-101.282a2.104 2.104 0 1 0-.002-4.208 2.104 2.104 0 0 0 .002 4.208Z"/>
  <path fill="#73BCE4" d="M92.231 65.902a.6.6 0 0 1-.6-.601V60.24a.6.6 0 1 1 1.201 0v5.061a.601.601 0 0 1-.6.601Zm8.523 3.45h-5.073a.6.6 0 1 1 0-1.202h5.061a.602.602 0 1 1 .012 1.202Zm-8.523 8.512a.601.601 0 0 1-.6-.602v-5.06a.6.6 0 1 1 1.201 0v5.036a.602.602 0 0 1-.6.626Zm-3.438-8.512H83.72a.601.601 0 1 1 0-1.202h5.061a.6.6 0 1 1 .012 1.202Zm377.717 71.084a.601.601 0 0 1-.601-.601v-5.061a.602.602 0 1 1 1.202 0v5.061a.601.601 0 0 1-.601.601Zm8.511 3.45h-5.061a.601.601 0 1 1 0-1.202h5.061a.598.598 0 0 1 .601.601.601.601 0 0 1-.601.601Zm-8.511 8.511a.601.601 0 0 1-.601-.601v-5.061a.601.601 0 1 1 1.202 0v5.037a.597.597 0 0 1-.167.441.614.614 0 0 1-.434.184Zm-3.45-8.511h-5.121a.598.598 0 0 1-.601-.601.598.598 0 0 1 .601-.601H463a.6.6 0 0 1 .631.571.604.604 0 0 1-.571.631Zm-249.7-11.192a.601.601 0 0 1-.601-.601v-5.061a.598.598 0 0 1 .601-.601.598.598 0 0 1 .601.601v5.061a.601.601 0 0 1-.601.601Zm8.511 3.45h-5.061a.601.601 0 1 1 0-1.202h5.061a.6.6 0 1 1 0 1.202Zm-8.511 8.511a.601.601 0 0 1-.601-.601v-5.061a.601.601 0 1 1 1.202 0v5.061a.6.6 0 0 1-.601.601Zm-3.45-8.511h-5.061a.601.601 0 1 1 0-1.202h5.061a.6.6 0 0 1 .425 1.026.6.6 0 0 1-.425.176Z"/>
</svg>
