<svg xmlns="http://www.w3.org/2000/svg" width="90" height="90" fill="none" viewBox="0 0 90 90">
  <path fill="#245A77" d="M45 0C20.141 0 0 20.141 0 45s20.141 45 45 45 45-20.141 45-45S69.859 0 45 0Zm0 17.42c8.819 0 15.968 7.148 15.968 15.967S53.818 49.355 45 49.355c-8.819 0-15.968-7.15-15.968-15.968 0-8.819 7.15-15.968 15.968-15.968Zm0 62.419c-10.651 0-20.196-4.827-26.583-12.375C21.83 61.04 28.506 56.613 36.29 56.613c.436 0 .871.072 1.289.2 2.358.762 4.826 1.252 7.421 1.252 2.595 0 5.08-.49 7.421-1.252a4.44 4.44 0 0 1 1.289-.2c7.784 0 14.461 4.427 17.873 10.85C65.196 75.014 55.65 79.84 45 79.84Z"/>
</svg>
